<?xml version="1.0" encoding="UTF-8" standalone="no"?>
<svg
   width="496mm"
   height="303mm"
   viewBox="0 0 496 303"
   version="1.1"
   preserveAspectRatio="xMidYMid meet"
   id="svg1"
   sodipodi:docname="caixa-projetoArduino.svg"
   inkscape:version="1.3.2 (091e20e, 2023-11-25, custom)"
   xmlns:inkscape="http://www.inkscape.org/namespaces/inkscape"
   xmlns:sodipodi="http://sodipodi.sourceforge.net/DTD/sodipodi-0.dtd"
   xmlns="http://www.w3.org/2000/svg"
   xmlns:svg="http://www.w3.org/2000/svg">
  <defs
     id="defs1" />
  <sodipodi:namedview
     id="namedview1"
     pagecolor="#ffffff"
     bordercolor="#000000"
     borderopacity="0.25"
     inkscape:showpageshadow="2"
     inkscape:pageopacity="0.0"
     inkscape:pagecheckerboard="0"
     inkscape:deskcolor="#d1d1d1"
     inkscape:document-units="mm"
     inkscape:zoom="0.41717756"
     inkscape:cx="824.58894"
     inkscape:cy="569.30196"
     inkscape:window-width="1920"
     inkscape:window-height="991"
     inkscape:window-x="-9"
     inkscape:window-y="-9"
     inkscape:window-maximized="1"
     inkscape:current-layer="svgGroup" />
  <g
     id="svgGroup"
     stroke-linecap="round"
     fill-rule="evenodd"
     font-size="9pt"
     stroke="#000"
     stroke-width="0.25mm"
     fill="none"
     style="stroke:#000;stroke-width:0.25mm;fill:none">
    <g
       id="g6"
       inkscape:label="front"
       style="stroke-width:0.7;stroke-dasharray:none">
      <path
         d="M 0 253 L 0 265.813 L 3 265.813 L 3 290.188 L 0 290.188 L 0 303 L 24.063 303 L 24.063 300 L 48.438 300 L 48.438 303 L 72.813 303 L 72.813 300 L 97.188 300 L 97.188 303 L 121.563 303 L 121.563 300 L 145.938 300 L 145.938 303 L 170 303 L 170 290.188 L 167 290.188 L 167 265.813 L 170 265.813 L 170 253 L 145.938 253 L 145.938 256 L 121.563 256 L 121.563 253 L 97.188 253 L 97.188 256 L 72.813 256 L 72.813 253 L 48.438 253 L 48.438 256 L 24.063 256 L 24.063 253 L 0 253 Z"
         id="front_outsideCutPath"
         stroke="#FF0000"
         stroke-width="0.1"
         style="stroke:#FF0000;stroke-width:0.7;stroke-dasharray:none"
         vector-effect="non-scaling-stroke" />
      <path
         d="M 92.288 281.777 L 91.477 281.777 L 91.477 278.315 A 2.291 2.291 0 0 0 91.451 277.956 Q 91.389 277.565 91.179 277.338 A 0.914 0.914 0 0 0 90.804 277.099 Q 90.569 277.016 90.247 277.016 A 2.453 2.453 0 0 0 89.788 277.056 Q 89.291 277.151 89.016 277.47 Q 88.659 277.885 88.628 278.793 A 5.193 5.193 0 0 0 88.625 278.969 L 88.625 281.777 L 87.815 281.777 L 87.815 276.425 L 88.474 276.425 L 88.606 277.158 L 88.645 277.158 A 1.641 1.641 0 0 1 89.288 276.573 A 1.974 1.974 0 0 1 89.343 276.545 A 2.195 2.195 0 0 1 90.124 276.336 A 2.654 2.654 0 0 1 90.344 276.328 A 3.2 3.2 0 0 1 90.889 276.371 Q 91.46 276.47 91.799 276.794 A 1.405 1.405 0 0 1 92.142 277.331 Q 92.224 277.553 92.26 277.827 A 3.537 3.537 0 0 1 92.288 278.286 L 92.288 281.777 Z M 76.716 276.425 L 76.716 277.055 L 75.354 277.055 L 75.354 281.777 L 74.543 281.777 L 74.543 277.055 L 73.586 277.055 L 73.586 276.689 L 74.543 276.396 L 74.543 276.098 A 3.285 3.285 0 0 1 74.62 275.354 Q 74.907 274.125 76.267 274.125 A 2.61 2.61 0 0 1 76.636 274.154 Q 76.816 274.179 77.016 274.229 A 5.247 5.247 0 0 1 77.263 274.296 L 77.053 274.946 Q 76.72 274.838 76.456 274.807 A 1.743 1.743 0 0 0 76.252 274.794 A 1.093 1.093 0 0 0 75.989 274.824 A 0.702 0.702 0 0 0 75.574 275.1 Q 75.354 275.405 75.354 276.079 L 75.354 276.425 L 76.716 276.425 Z M 96.414 281.108 L 96.414 281.728 A 0.797 0.797 0 0 1 96.319 281.765 Q 96.218 281.799 96.074 281.825 A 3.033 3.033 0 0 1 96.025 281.833 Q 95.769 281.874 95.564 281.874 A 2.117 2.117 0 0 1 94.94 281.79 Q 94.011 281.504 94.011 280.239 L 94.011 277.055 L 93.245 277.055 L 93.245 276.664 L 94.011 276.328 L 94.353 275.185 L 94.822 275.185 L 94.822 276.425 L 96.375 276.425 L 96.375 277.055 L 94.822 277.055 L 94.822 280.204 A 1.632 1.632 0 0 0 94.845 280.491 Q 94.873 280.648 94.935 280.773 A 0.786 0.786 0 0 0 95.051 280.947 Q 95.281 281.205 95.681 281.205 A 2.662 2.662 0 0 0 96.071 281.178 A 2.453 2.453 0 0 0 96.096 281.174 Q 96.296 281.142 96.414 281.108 Z M 80.774 276.386 L 80.662 277.138 Q 80.385 277.077 80.163 277.067 A 1.901 1.901 0 0 0 80.076 277.065 Q 79.426 277.065 78.965 277.592 A 1.851 1.851 0 0 0 78.518 278.631 A 2.46 2.46 0 0 0 78.503 278.906 L 78.503 281.777 L 77.693 281.777 L 77.693 276.425 L 78.362 276.425 L 78.455 277.416 L 78.494 277.416 A 2.737 2.737 0 0 1 78.8 276.979 A 2.091 2.091 0 0 1 79.211 276.611 Q 79.631 276.328 80.134 276.328 A 3.721 3.721 0 0 1 80.467 276.342 A 2.716 2.716 0 0 1 80.774 276.386 Z M 86.32 279.911 A 4.187 4.187 0 0 0 86.394 279.096 Q 86.394 278.576 86.284 278.144 A 2.524 2.524 0 0 0 85.732 277.075 A 2.122 2.122 0 0 0 84.747 276.439 A 2.724 2.724 0 0 0 83.948 276.328 A 3.148 3.148 0 0 0 83.382 276.376 A 2.144 2.144 0 0 0 82.131 277.058 A 2.239 2.239 0 0 0 81.856 277.439 Q 81.477 278.1 81.477 279.096 A 4.055 4.055 0 0 0 81.528 279.753 A 2.998 2.998 0 0 0 81.78 280.571 A 2.664 2.664 0 0 0 81.839 280.686 A 2.194 2.194 0 0 0 82.639 281.537 Q 83.196 281.874 83.914 281.874 A 3.147 3.147 0 0 0 84.463 281.828 A 2.161 2.161 0 0 0 85.735 281.14 A 2.261 2.261 0 0 0 86.004 280.77 Q 86.224 280.394 86.32 279.911 Z M 82.317 279.096 Q 82.317 280.121 82.727 280.659 A 1.328 1.328 0 0 0 83.592 281.168 A 2.013 2.013 0 0 0 83.933 281.196 A 1.883 1.883 0 0 0 84.43 281.134 A 1.31 1.31 0 0 0 85.142 280.661 A 1.74 1.74 0 0 0 85.413 280.133 Q 85.492 279.889 85.527 279.592 A 4.27 4.27 0 0 0 85.554 279.096 A 4.044 4.044 0 0 0 85.516 278.52 Q 85.474 278.226 85.384 277.989 A 1.669 1.669 0 0 0 85.142 277.546 A 1.333 1.333 0 0 0 84.313 277.051 A 2.044 2.044 0 0 0 83.923 277.016 A 1.929 1.929 0 0 0 83.443 277.072 A 1.291 1.291 0 0 0 82.722 277.538 Q 82.317 278.061 82.317 279.096 Z"
         id="front_labelLayer"
         stroke="#777777"
         fill="#777777"
         style="stroke:#777777;fill:#777777;stroke-width:0.7;stroke-dasharray:none"
         vector-effect="non-scaling-stroke" />
      <rect
         style="opacity:1;fill:none;fill-rule:evenodd;stroke:#0012ff;stroke-width:0.7;stroke-linejoin:round;stroke-dasharray:none;stroke-opacity:0.529412"
         id="rect6"
         width="71.664864"
         height="24.364862"
         x="49.167568"
         y="265.81757"
         inkscape:label="front-LCD"
         inkscape:highlight-color="#ff5555" />
    </g>
    <g
       id="g5"
       inkscape:label="left"
       style="stroke-width:0.7;stroke-dasharray:none">
      <path
         d="M 176 253 L 176 265.813 L 173 265.813 L 173 290.188 L 176 290.188 L 176 303 L 211.438 303 L 211.438 300 L 235.813 300 L 235.813 303 L 260.188 303 L 260.188 300 L 284.563 300 L 284.563 303 L 308.938 303 L 320 303 L 320 290.188 L 323 290.188 L 323 265.813 L 320 265.813 L 320 253 L 284.563 253 L 284.563 256 L 260.188 256 L 260.188 253 L 235.813 253 L 235.813 256 L 211.438 256 L 211.438 253 L 187.063 253 L 176 253 Z"
         id="left_outsideCutPath"
         stroke="#FF0000"
         stroke-width="0.1"
         style="stroke:#FF0000;stroke-width:0.7;stroke-dasharray:none"
         vector-effect="non-scaling-stroke" />
      <path
         d="M 251.557 276.425 L 251.557 277.055 L 250.195 277.055 L 250.195 281.777 L 249.384 281.777 L 249.384 277.055 L 248.427 277.055 L 248.427 276.689 L 249.384 276.396 L 249.384 276.098 A 3.285 3.285 0 0 1 249.461 275.354 Q 249.748 274.125 251.108 274.125 A 2.61 2.61 0 0 1 251.477 274.154 Q 251.657 274.179 251.857 274.229 A 5.247 5.247 0 0 1 252.104 274.296 L 251.894 274.946 Q 251.561 274.838 251.297 274.807 A 1.743 1.743 0 0 0 251.093 274.794 A 1.093 1.093 0 0 0 250.83 274.824 A 0.702 0.702 0 0 0 250.415 275.1 Q 250.195 275.405 250.195 276.079 L 250.195 276.425 L 251.557 276.425 Z M 247.763 278.735 L 247.763 279.247 L 244.077 279.247 Q 244.093 279.891 244.309 280.323 A 1.522 1.522 0 0 0 244.553 280.678 A 1.473 1.473 0 0 0 245.326 281.114 A 2.232 2.232 0 0 0 245.825 281.166 A 4.281 4.281 0 0 0 247.428 280.849 A 4.905 4.905 0 0 0 247.534 280.805 L 247.534 281.528 A 4.866 4.866 0 0 1 247.09 281.695 A 3.721 3.721 0 0 1 246.721 281.794 Q 246.337 281.874 245.795 281.874 A 3.15 3.15 0 0 1 245.007 281.781 A 2.23 2.23 0 0 1 243.923 281.152 Q 243.276 280.471 243.239 279.291 A 4.63 4.63 0 0 1 243.237 279.145 A 4.256 4.256 0 0 1 243.316 278.301 Q 243.419 277.788 243.66 277.389 A 2.4 2.4 0 0 1 243.874 277.089 A 2.077 2.077 0 0 1 245.388 276.334 A 2.865 2.865 0 0 1 245.585 276.328 A 2.469 2.469 0 0 1 246.281 276.421 A 1.879 1.879 0 0 1 247.177 276.989 A 2.266 2.266 0 0 1 247.691 278.025 A 3.299 3.299 0 0 1 247.763 278.735 Z M 254.995 281.108 L 254.995 281.728 A 0.797 0.797 0 0 1 254.9 281.765 Q 254.799 281.799 254.655 281.825 A 3.033 3.033 0 0 1 254.606 281.833 Q 254.35 281.874 254.145 281.874 A 2.117 2.117 0 0 1 253.521 281.79 Q 252.592 281.504 252.592 280.239 L 252.592 277.055 L 251.826 277.055 L 251.826 276.664 L 252.592 276.328 L 252.934 275.185 L 253.403 275.185 L 253.403 276.425 L 254.956 276.425 L 254.956 277.055 L 253.403 277.055 L 253.403 280.204 A 1.632 1.632 0 0 0 253.426 280.491 Q 253.454 280.648 253.516 280.773 A 0.786 0.786 0 0 0 253.632 280.947 Q 253.862 281.205 254.262 281.205 A 2.662 2.662 0 0 0 254.652 281.178 A 2.453 2.453 0 0 0 254.677 281.174 Q 254.877 281.142 254.995 281.108 Z M 241.816 274.179 L 241.816 281.777 L 241.005 281.777 L 241.005 274.179 L 241.816 274.179 Z M 244.096 278.588 L 246.894 278.588 Q 246.894 278.07 246.738 277.715 A 1.254 1.254 0 0 0 246.552 277.414 A 1.11 1.11 0 0 0 245.884 277.033 A 1.666 1.666 0 0 0 245.576 277.006 Q 244.931 277.006 244.548 277.426 A 1.601 1.601 0 0 0 244.229 277.963 Q 244.128 278.24 244.096 278.588 Z"
         id="left_labelLayer"
         stroke="#777777"
         fill="#777777"
         style="stroke:#777777;fill:#777777;stroke-width:0.7;stroke-dasharray:none"
         vector-effect="non-scaling-stroke" />
    </g>
    <g
       id="g4"
       inkscape:label="Top"
       style="stroke-width:0.7;stroke-dasharray:none">
      <path
         d="M 329 156 L 329 191.438 L 326 191.438 L 326 215.813 L 329 215.813 L 329 240.188 L 326 240.188 L 326 264.563 L 329 264.563 L 329 288.938 L 329 300 L 350.063 300 L 350.063 303 L 374.438 303 L 374.438 300 L 398.813 300 L 398.813 303 L 423.188 303 L 423.188 300 L 447.563 300 L 447.563 303 L 471.938 303 L 471.938 300 L 493 300 L 493 264.563 L 496 264.563 L 496 240.188 L 493 240.188 L 493 215.813 L 496 215.813 L 496 191.438 L 493 191.438 L 493 167.063 L 493 156 L 471.938 156 L 471.938 153 L 447.563 153 L 447.563 156 L 423.188 156 L 423.188 153 L 398.813 153 L 398.813 156 L 374.438 156 L 374.438 153 L 350.063 153 L 350.063 156 L 329 156 Z"
         id="top_outsideCutPath"
         stroke="#FF0000"
         stroke-width="0.1"
         style="stroke:#FF0000;stroke-width:0.7;stroke-dasharray:none"
         vector-effect="non-scaling-stroke" />
      <path
         d="M 421.781 232.219 L 421.605 232.219 Q 421.781 233.625 421.781 234.885 L 421.781 241.491 L 419.349 241.491 L 419.349 218.229 L 421.327 218.229 L 421.664 220.427 L 421.781 220.427 A 6.545 6.545 0 0 1 422.728 219.352 A 5.061 5.061 0 0 1 423.964 218.522 A 6.09 6.09 0 0 1 425.709 218.012 A 7.882 7.882 0 0 1 426.82 217.937 A 7.454 7.454 0 0 1 428.926 218.218 A 5.509 5.509 0 0 1 431.749 220.119 Q 433.485 222.302 433.485 226.242 A 14.257 14.257 0 0 1 433.296 228.641 Q 432.908 230.914 431.72 232.387 A 5.757 5.757 0 0 1 427.629 234.539 A 8.247 8.247 0 0 1 426.82 234.577 A 7.376 7.376 0 0 1 424.967 234.351 A 6.418 6.418 0 0 1 423.956 233.999 A 5.386 5.386 0 0 1 421.781 232.219 Z M 398.021 232.277 L 398.021 234.138 A 2.392 2.392 0 0 1 397.738 234.25 Q 397.386 234.367 396.857 234.453 Q 396.139 234.569 395.555 234.577 A 6.232 6.232 0 0 1 395.473 234.577 A 6.351 6.351 0 0 1 393.601 234.325 Q 391.544 233.69 391.005 231.456 A 7.643 7.643 0 0 1 390.814 229.67 L 390.814 220.119 L 388.515 220.119 L 388.515 218.947 L 390.814 217.937 L 391.84 214.509 L 393.246 214.509 L 393.246 218.229 L 397.904 218.229 L 397.904 220.119 L 393.246 220.119 L 393.246 229.567 Q 393.246 230.586 393.586 231.273 A 2.359 2.359 0 0 0 393.934 231.794 A 2.259 2.259 0 0 0 395.323 232.533 A 3.25 3.25 0 0 0 395.824 232.57 A 7.986 7.986 0 0 0 396.994 232.487 A 7.359 7.359 0 0 0 397.069 232.475 A 13.154 13.154 0 0 0 397.42 232.415 Q 397.78 232.348 398.021 232.277 Z M 414.864 228.686 A 12.56 12.56 0 0 0 415.087 226.242 A 14.272 14.272 0 0 0 415.082 225.856 Q 415.045 224.519 414.756 223.384 A 7.572 7.572 0 0 0 413.102 220.178 A 6.366 6.366 0 0 0 410.147 218.272 A 8.171 8.171 0 0 0 407.748 217.937 A 9.444 9.444 0 0 0 406.052 218.082 A 6.432 6.432 0 0 0 402.299 220.126 Q 400.336 222.316 400.336 226.242 A 12.165 12.165 0 0 0 400.489 228.213 A 8.995 8.995 0 0 0 401.244 230.666 A 7.992 7.992 0 0 0 401.421 231.013 A 6.583 6.583 0 0 0 403.822 233.566 A 6.771 6.771 0 0 0 405.376 234.257 A 7.809 7.809 0 0 0 407.645 234.577 A 9.442 9.442 0 0 0 409.294 234.439 A 6.483 6.483 0 0 0 413.109 232.373 A 6.783 6.783 0 0 0 413.917 231.263 Q 414.576 230.136 414.864 228.686 Z M 402.855 226.242 A 12.314 12.314 0 0 0 402.973 228.001 Q 403.102 228.894 403.373 229.618 A 5.101 5.101 0 0 0 404.086 230.93 A 3.985 3.985 0 0 0 406.681 232.458 A 6.039 6.039 0 0 0 407.704 232.541 A 5.648 5.648 0 0 0 409.194 232.356 A 3.931 3.931 0 0 0 411.329 230.937 A 5.22 5.22 0 0 0 412.142 229.354 Q 412.381 228.622 412.486 227.729 A 12.809 12.809 0 0 0 412.567 226.242 A 12.133 12.133 0 0 0 412.452 224.513 Q 412.19 222.696 411.329 221.591 A 4 4 0 0 0 408.843 220.108 A 6.133 6.133 0 0 0 407.675 220.002 A 5.787 5.787 0 0 0 406.234 220.171 A 3.873 3.873 0 0 0 404.071 221.569 A 5.028 5.028 0 0 0 403.29 223.08 Q 402.855 224.386 402.855 226.242 Z M 421.781 225.7 L 421.781 226.242 A 16.078 16.078 0 0 0 421.861 227.904 Q 422.036 229.581 422.595 230.601 A 3.668 3.668 0 0 0 422.909 231.083 A 3.528 3.528 0 0 0 424.699 232.291 Q 425.297 232.479 426.026 232.525 A 7.819 7.819 0 0 0 426.527 232.541 A 4.097 4.097 0 0 0 428.12 232.242 Q 429.039 231.858 429.695 230.983 A 4.845 4.845 0 0 0 429.786 230.856 Q 430.966 229.172 430.966 226.213 A 12.271 12.271 0 0 0 430.851 224.473 Q 430.724 223.591 430.458 222.874 A 5.155 5.155 0 0 0 429.786 221.606 A 3.783 3.783 0 0 0 427.02 220.03 A 5.232 5.232 0 0 0 426.469 220.002 A 7.006 7.006 0 0 0 425.16 220.116 Q 424.431 220.255 423.871 220.563 A 3.213 3.213 0 0 0 422.909 221.364 Q 421.881 222.64 421.789 225.327 A 15.476 15.476 0 0 0 421.781 225.7 Z"
         id="top_labelLayer"
         stroke="#777777"
         fill="#777777"
         style="stroke:#777777;fill:#777777;stroke-width:0.7;stroke-dasharray:none"
         vector-effect="non-scaling-stroke" />
    </g>
    <g
       id="g3"
       inkscape:label="Back"
       style="stroke-width:0.7;stroke-dasharray:none">
      <path
         d="M 0 200 L 0 212.813 L 3 212.813 L 3 237.188 L 0 237.188 L 0 250 L 24.063 250 L 24.063 247 L 48.438 247 L 48.438 250 L 72.813 250 L 72.813 247 L 97.188 247 L 97.188 250 L 121.563 250 L 121.563 247 L 145.938 247 L 145.938 250 L 170 250 L 170 237.188 L 167 237.188 L 167 212.813 L 170 212.813 L 170 200 L 145.938 200 L 145.938 203 L 121.563 203 L 121.563 200 L 97.188 200 L 97.188 203 L 72.813 203 L 72.813 200 L 48.438 200 L 48.438 203 L 24.063 203 L 24.063 200 L 0 200 Z"
         id="back_outsideCutPath"
         stroke="#FF0000"
         stroke-width="0.1"
         style="stroke:#FF0000;stroke-width:0.7;stroke-dasharray:none"
         vector-effect="non-scaling-stroke" />
      <path
         d="M 91.846 226.011 L 91.885 226.011 A 4.798 4.798 0 0 1 92.003 225.85 Q 92.14 225.673 92.335 225.446 A 17.416 17.416 0 0 1 92.524 225.229 L 94.253 223.398 L 95.215 223.398 L 93.047 225.679 L 95.366 228.75 L 94.385 228.75 L 92.495 226.221 L 91.885 226.748 L 91.885 228.75 L 91.084 228.75 L 91.084 221.152 L 91.885 221.152 L 91.885 225.181 A 5.402 5.402 0 0 1 91.882 225.333 Q 91.875 225.583 91.847 225.99 A 33.76 33.76 0 0 1 91.846 226.011 Z M 75.444 228.061 L 75.386 228.061 L 75.215 228.75 L 74.634 228.75 L 74.634 221.152 L 75.444 221.152 L 75.444 222.998 Q 75.444 223.598 75.408 224.079 A 10.075 10.075 0 0 1 75.405 224.111 L 75.444 224.111 A 1.843 1.843 0 0 1 76.789 223.33 A 2.768 2.768 0 0 1 77.124 223.31 A 2.477 2.477 0 0 1 77.821 223.404 A 1.854 1.854 0 0 1 78.762 224.031 Q 79.229 224.607 79.323 225.568 A 5.203 5.203 0 0 1 79.346 226.069 A 4.752 4.752 0 0 1 79.283 226.869 Q 79.21 227.295 79.053 227.637 A 2.278 2.278 0 0 1 78.757 228.118 A 1.919 1.919 0 0 1 77.394 228.835 A 2.749 2.749 0 0 1 77.124 228.848 Q 76.602 228.848 76.169 228.655 A 1.795 1.795 0 0 1 75.444 228.061 Z M 84.653 228.75 L 84.053 228.75 L 83.892 227.988 L 83.853 227.988 A 3.36 3.36 0 0 1 83.581 228.293 Q 83.317 228.552 83.054 228.669 A 1.869 1.869 0 0 1 82.668 228.791 Q 82.396 228.848 82.061 228.848 A 2.487 2.487 0 0 1 81.554 228.799 Q 81.245 228.735 81.007 228.585 A 1.396 1.396 0 0 1 80.813 228.437 A 1.332 1.332 0 0 1 80.411 227.735 A 2.039 2.039 0 0 1 80.361 227.27 A 1.403 1.403 0 0 1 81.159 225.947 Q 81.8 225.606 82.954 225.571 L 83.862 225.542 L 83.862 225.21 A 2.328 2.328 0 0 0 83.84 224.873 Q 83.814 224.701 83.761 224.563 A 0.905 0.905 0 0 0 83.591 224.28 Q 83.375 224.04 82.952 223.992 A 2.003 2.003 0 0 0 82.725 223.979 A 2.639 2.639 0 0 0 82.117 224.055 Q 81.839 224.121 81.535 224.245 A 5.428 5.428 0 0 0 81.211 224.39 L 80.962 223.769 A 3.737 3.737 0 0 1 81.683 223.473 A 4.254 4.254 0 0 1 81.829 223.433 A 3.754 3.754 0 0 1 82.773 223.31 A 3.423 3.423 0 0 1 83.295 223.347 Q 83.867 223.436 84.192 223.735 A 1.284 1.284 0 0 1 84.523 224.246 Q 84.6 224.456 84.632 224.717 A 3.189 3.189 0 0 1 84.653 225.098 L 84.653 228.75 Z M 89.893 223.579 L 89.644 224.268 A 3.606 3.606 0 0 0 89.252 224.137 A 4.306 4.306 0 0 0 89.058 224.089 Q 88.786 224.029 88.568 224.02 A 1.797 1.797 0 0 0 88.496 224.018 A 1.798 1.798 0 0 0 87.766 224.156 Q 86.865 224.553 86.865 226.099 A 3.925 3.925 0 0 0 86.904 226.67 Q 86.947 226.96 87.037 227.195 A 1.681 1.681 0 0 0 87.263 227.612 A 1.287 1.287 0 0 0 88.097 228.111 A 1.961 1.961 0 0 0 88.442 228.14 A 3.393 3.393 0 0 0 89.378 228.003 A 4.189 4.189 0 0 0 89.814 227.852 L 89.814 228.569 A 2.306 2.306 0 0 1 89.25 228.769 Q 88.99 228.827 88.687 228.842 A 4.445 4.445 0 0 1 88.462 228.848 A 3.029 3.029 0 0 1 87.725 228.763 A 2.054 2.054 0 0 1 86.663 228.132 A 2.345 2.345 0 0 1 86.175 227.237 Q 86.067 226.881 86.037 226.454 A 4.901 4.901 0 0 1 86.025 226.108 A 4.472 4.472 0 0 1 86.095 225.295 Q 86.179 224.841 86.365 224.484 A 2.235 2.235 0 0 1 86.672 224.033 A 2.099 2.099 0 0 1 87.822 223.372 A 3.182 3.182 0 0 1 88.516 223.301 Q 88.901 223.301 89.287 223.384 A 4.046 4.046 0 0 1 89.512 223.438 Q 89.742 223.502 89.893 223.579 Z M 76.124 224.19 A 1.078 1.078 0 0 0 75.811 224.465 Q 75.444 224.941 75.444 226.069 A 5.359 5.359 0 0 0 75.471 226.623 Q 75.529 227.182 75.716 227.522 A 1.222 1.222 0 0 0 75.82 227.683 A 1.176 1.176 0 0 0 76.417 228.086 Q 76.616 228.148 76.859 228.164 A 2.606 2.606 0 0 0 77.026 228.169 A 1.616 1.616 0 0 0 77.485 228.107 A 1.166 1.166 0 0 0 78.14 227.624 Q 78.506 227.08 78.506 226.06 A 4.789 4.789 0 0 0 78.477 225.514 Q 78.403 224.87 78.14 224.502 Q 77.773 223.989 77.007 223.989 Q 76.467 223.989 76.124 224.19 Z M 83.843 226.602 L 83.843 226.118 L 83.032 226.152 Q 82.065 226.186 81.638 226.453 A 0.865 0.865 0 0 0 81.226 227.08 A 1.28 1.28 0 0 0 81.211 227.28 A 1.158 1.158 0 0 0 81.24 227.546 Q 81.288 227.75 81.417 227.891 A 0.722 0.722 0 0 0 81.477 227.949 A 0.882 0.882 0 0 0 81.808 228.125 Q 81.938 228.163 82.095 228.174 A 1.823 1.823 0 0 0 82.222 228.179 A 2.232 2.232 0 0 0 82.704 228.13 Q 83.039 228.055 83.287 227.869 A 1.353 1.353 0 0 0 83.411 227.764 Q 83.843 227.349 83.843 226.602 Z"
         id="back_labelLayer"
         stroke="#777777"
         fill="#777777"
         style="stroke:#777777;fill:#777777;stroke-width:0.7;stroke-dasharray:none"
         vector-effect="non-scaling-stroke" />
      <rect
         style="stroke:#0012ff;stroke-width:0.7;fill:none;stroke-dasharray:none;fill-rule:evenodd;stroke-linejoin:round;stroke-opacity:0.529412"
         id="rect6-8"
         width="52.565231"
         height="15.565229"
         x="112.84727"
         y="229.93454"
         inkscape:label="back-arduino"
         inkscape:highlight-color="#ff5555" />
      <rect
         style="opacity:1;fill:none;fill-rule:evenodd;stroke:#0012ff;stroke-width:0.7;stroke-linejoin:round;stroke-dasharray:none;stroke-opacity:0.529412"
         id="rect7"
         width="17.697653"
         height="18.007652"
         x="14.152536"
         y="227.49211"
         inkscape:label="back-relé" />
    </g>
    <g
       id="g2"
       inkscape:label="Right"
       style="stroke-width:0.7;stroke-dasharray:none">
      <path
         d="M 176 200 L 176 212.813 L 173 212.813 L 173 237.188 L 176 237.188 L 176 250 L 211.438 250 L 211.438 247 L 235.813 247 L 235.813 250 L 260.188 250 L 260.188 247 L 284.563 247 L 284.563 250 L 308.938 250 L 320 250 L 320 237.188 L 323 237.188 L 323 212.813 L 320 212.813 L 320 200 L 284.563 200 L 284.563 203 L 260.188 203 L 260.188 200 L 235.813 200 L 235.813 203 L 211.438 203 L 211.438 200 L 187.063 200 L 176 200 Z"
         id="right_outsideCutPath"
         stroke="#FF0000"
         stroke-width="0.1"
         style="stroke:#FF0000;stroke-width:0.7;stroke-dasharray:none"
         vector-effect="non-scaling-stroke" />
      <path
         d="M 254.218 227.598 L 253.408 227.598 L 253.408 224.136 A 2.291 2.291 0 0 0 253.381 223.776 Q 253.319 223.386 253.11 223.159 A 0.914 0.914 0 0 0 252.735 222.92 Q 252.5 222.837 252.177 222.837 A 2.453 2.453 0 0 0 251.719 222.877 Q 251.464 222.925 251.269 223.033 A 1.135 1.135 0 0 0 250.944 223.296 A 1.349 1.349 0 0 0 250.715 223.701 Q 250.577 224.073 250.559 224.625 A 5.231 5.231 0 0 0 250.556 224.8 L 250.556 227.598 L 249.746 227.598 L 249.746 220 L 250.556 220 L 250.556 222.3 A 7.291 7.291 0 0 1 250.551 222.58 Q 250.546 222.711 250.536 222.824 A 3.171 3.171 0 0 1 250.517 222.988 L 250.566 222.988 A 1.619 1.619 0 0 1 251.133 222.442 A 1.978 1.978 0 0 1 251.247 222.38 A 2.081 2.081 0 0 1 251.93 222.178 A 2.631 2.631 0 0 1 252.255 222.158 A 3.288 3.288 0 0 1 252.808 222.201 Q 253.102 222.252 253.334 222.36 A 1.461 1.461 0 0 1 253.728 222.624 A 1.411 1.411 0 0 1 254.076 223.171 Q 254.218 223.559 254.218 224.106 L 254.218 227.598 Z M 246.796 222.246 L 248.647 222.246 L 248.647 222.759 L 247.656 222.876 Q 247.792 223.047 247.9 223.323 Q 248.007 223.599 248.007 223.945 A 1.858 1.858 0 0 1 247.922 224.521 A 1.503 1.503 0 0 1 247.47 225.2 Q 246.986 225.622 246.178 225.664 A 3.521 3.521 0 0 1 245.996 225.669 A 2.605 2.605 0 0 1 245.694 225.652 A 2.2 2.2 0 0 1 245.546 225.63 A 1.442 1.442 0 0 0 245.314 225.78 Q 245.194 225.877 245.124 225.988 A 0.61 0.61 0 0 0 245.029 226.318 Q 245.029 226.538 245.209 226.643 Q 245.39 226.748 245.83 226.748 L 246.777 226.748 A 3.318 3.318 0 0 1 247.281 226.784 Q 247.544 226.824 247.757 226.911 A 1.465 1.465 0 0 1 248.112 227.114 A 1.186 1.186 0 0 1 248.553 227.87 A 1.781 1.781 0 0 1 248.579 228.179 Q 248.579 229.067 247.866 229.534 Q 247.369 229.859 246.553 229.957 A 6.424 6.424 0 0 1 245.786 230 A 4.541 4.541 0 0 1 245.176 229.962 Q 244.558 229.878 244.167 229.609 A 1.292 1.292 0 0 1 243.751 229.157 Q 243.617 228.91 243.601 228.597 A 1.711 1.711 0 0 1 243.598 228.506 A 1.239 1.239 0 0 1 243.911 227.661 Q 244.223 227.305 244.79 227.178 A 0.841 0.841 0 0 1 244.463 226.914 A 0.999 0.999 0 0 1 244.445 226.89 A 0.751 0.751 0 0 1 244.307 226.483 A 0.931 0.931 0 0 1 244.306 226.436 A 0.927 0.927 0 0 1 244.353 226.137 A 0.821 0.821 0 0 1 244.462 225.923 A 1.16 1.16 0 0 1 244.616 225.75 Q 244.697 225.674 244.802 225.599 A 2.546 2.546 0 0 1 244.956 225.498 A 1.421 1.421 0 0 1 244.338 225.004 A 1.761 1.761 0 0 1 244.279 224.917 A 1.676 1.676 0 0 1 244.022 224.109 A 2.045 2.045 0 0 1 244.018 223.979 Q 244.018 223.101 244.545 222.624 A 1.721 1.721 0 0 1 245.206 222.26 Q 245.469 222.18 245.784 222.157 A 3.58 3.58 0 0 1 246.04 222.148 A 3.107 3.107 0 0 1 246.451 222.174 A 2.366 2.366 0 0 1 246.796 222.246 Z M 258.344 226.929 L 258.344 227.549 A 0.797 0.797 0 0 1 258.25 227.586 Q 258.149 227.62 258.004 227.646 A 3.033 3.033 0 0 1 257.956 227.654 Q 257.7 227.695 257.495 227.695 A 2.117 2.117 0 0 1 256.871 227.611 Q 255.942 227.325 255.942 226.06 L 255.942 222.876 L 255.175 222.876 L 255.175 222.485 L 255.942 222.148 L 256.284 221.006 L 256.752 221.006 L 256.752 222.246 L 258.305 222.246 L 258.305 222.876 L 256.752 222.876 L 256.752 226.025 A 1.632 1.632 0 0 0 256.776 226.312 Q 256.804 226.469 256.866 226.594 A 0.786 0.786 0 0 0 256.982 226.768 Q 257.211 227.026 257.612 227.026 A 2.662 2.662 0 0 0 258.002 226.998 A 2.453 2.453 0 0 0 258.027 226.995 Q 258.227 226.963 258.344 226.929 Z M 240.737 222.207 L 240.625 222.959 Q 240.348 222.898 240.126 222.888 A 1.901 1.901 0 0 0 240.039 222.886 Q 239.389 222.886 238.928 223.413 A 1.851 1.851 0 0 0 238.481 224.452 A 2.46 2.46 0 0 0 238.466 224.727 L 238.466 227.598 L 237.656 227.598 L 237.656 222.246 L 238.325 222.246 L 238.417 223.237 L 238.457 223.237 A 2.737 2.737 0 0 1 238.763 222.8 A 2.091 2.091 0 0 1 239.174 222.432 Q 239.594 222.148 240.097 222.148 A 3.721 3.721 0 0 1 240.43 222.163 A 2.716 2.716 0 0 1 240.737 222.207 Z M 242.548 222.246 L 242.548 227.598 L 241.738 227.598 L 241.738 222.246 L 242.548 222.246 Z M 246.518 227.476 L 245.546 227.476 A 1.863 1.863 0 0 0 245.211 227.504 Q 244.894 227.562 244.687 227.739 Q 244.379 228.003 244.379 228.496 A 0.814 0.814 0 0 0 244.433 228.798 Q 244.52 229.017 244.746 229.155 Q 245.112 229.38 245.795 229.38 A 5.449 5.449 0 0 0 246.328 229.356 Q 246.861 229.303 247.196 229.136 A 1.346 1.346 0 0 0 247.307 229.075 Q 247.797 228.77 247.797 228.247 A 1.097 1.097 0 0 0 247.777 228.029 Q 247.724 227.766 247.529 227.644 A 0.769 0.769 0 0 0 247.347 227.564 Q 247.057 227.476 246.518 227.476 Z M 244.819 223.96 A 1.582 1.582 0 0 0 244.851 224.292 Q 244.921 224.614 245.136 224.81 Q 245.454 225.098 246.02 225.098 Q 246.957 225.098 247.154 224.379 A 1.642 1.642 0 0 0 247.207 223.945 Q 247.207 222.988 246.45 222.791 A 1.763 1.763 0 0 0 246.005 222.739 Q 245.568 222.739 245.285 222.92 A 0.933 0.933 0 0 0 245.126 223.047 Q 244.865 223.308 244.826 223.783 A 2.132 2.132 0 0 0 244.819 223.96 Z M 241.806 220.388 A 0.379 0.379 0 0 0 241.722 220.507 Q 241.669 220.623 241.669 220.796 Q 241.669 220.934 241.704 221.036 A 0.418 0.418 0 0 0 241.806 221.204 Q 241.943 221.338 242.148 221.338 A 0.473 0.473 0 0 0 242.485 221.204 A 0.396 0.396 0 0 0 242.562 221.101 Q 242.597 221.035 242.613 220.95 A 0.839 0.839 0 0 0 242.626 220.796 A 0.927 0.927 0 0 0 242.622 220.708 Q 242.603 220.5 242.485 220.391 A 0.478 0.478 0 0 0 242.148 220.259 A 0.619 0.619 0 0 0 242.107 220.26 A 0.469 0.469 0 0 0 241.806 220.388 Z"
         id="right_labelLayer"
         stroke="#777777"
         fill="#777777"
         style="stroke:#777777;fill:#777777;stroke-width:0.7;stroke-dasharray:none"
         vector-effect="non-scaling-stroke" />
    </g>
    <g
       id="g1"
       inkscape:label="Bottom"
       style="stroke-width:0.7;stroke-dasharray:none">
      <path
         d="M 329 3 L 329 38.438 L 326 38.438 L 326 62.813 L 329 62.813 L 329 87.188 L 326 87.188 L 326 111.563 L 329 111.563 L 329 135.938 L 329 147 L 350.063 147 L 350.063 150 L 374.438 150 L 374.438 147 L 398.813 147 L 398.813 150 L 423.188 150 L 423.188 147 L 447.563 147 L 447.563 150 L 471.938 150 L 471.938 147 L 493 147 L 493 111.563 L 496 111.563 L 496 87.188 L 493 87.188 L 493 62.813 L 496 62.813 L 496 38.438 L 493 38.438 L 493 14.063 L 493 3 L 471.938 3 L 471.938 0 L 447.563 0 L 447.563 3 L 423.188 3 L 423.188 0 L 398.813 0 L 398.813 3 L 374.438 3 L 374.438 0 L 350.063 0 L 350.063 3 L 329 3 Z"
         id="bottom_outsideCutPath"
         stroke="#FF0000"
         stroke-width="0.1"
         style="stroke:#FF0000;stroke-width:0.7;stroke-dasharray:none"
         vector-effect="non-scaling-stroke"
         inkscape:label="B-Desenho" />
      <path
         d="M 460.351 86.25 L 457.919 86.25 L 457.919 75.805 A 7.174 7.174 0 0 0 457.847 74.75 Q 457.675 73.601 457.099 72.927 Q 456.278 71.967 454.55 71.967 A 6.257 6.257 0 0 0 453.276 72.088 Q 451.949 72.365 451.195 73.271 A 4.018 4.018 0 0 0 450.514 74.504 Q 450.111 75.633 450.111 77.285 L 450.111 86.25 L 447.68 86.25 L 447.68 75.805 A 7.174 7.174 0 0 0 447.607 74.75 Q 447.436 73.601 446.859 72.927 A 2.551 2.551 0 0 0 445.686 72.164 Q 445.264 72.026 444.748 71.985 A 5.694 5.694 0 0 0 444.296 71.967 A 6.039 6.039 0 0 0 443.047 72.088 Q 442.276 72.251 441.702 72.634 A 3.187 3.187 0 0 0 440.949 73.337 Q 439.986 74.578 439.896 77.257 A 16.93 16.93 0 0 0 439.887 77.827 L 439.887 86.25 L 437.455 86.25 L 437.455 70.195 L 439.433 70.195 L 439.828 72.392 L 439.945 72.392 A 4.779 4.779 0 0 1 441.886 70.561 A 5.773 5.773 0 0 1 444.166 69.921 A 6.973 6.973 0 0 1 444.691 69.902 A 7.961 7.961 0 0 1 446.483 70.089 Q 447.586 70.344 448.354 70.947 A 4.151 4.151 0 0 1 449.613 72.627 L 449.73 72.627 A 5.077 5.077 0 0 1 451.643 70.728 A 6.1 6.1 0 0 1 451.81 70.634 A 6.154 6.154 0 0 1 454.068 69.948 A 7.674 7.674 0 0 1 454.916 69.902 A 8.453 8.453 0 0 1 456.449 70.032 Q 457.301 70.189 457.967 70.538 A 4.007 4.007 0 0 1 458.996 71.301 A 4.187 4.187 0 0 1 459.895 72.772 Q 460.137 73.42 460.25 74.227 A 11.153 11.153 0 0 1 460.351 75.776 L 460.351 86.25 Z M 364.081 84.184 L 363.905 84.184 L 363.393 86.25 L 361.649 86.25 L 361.649 63.457 L 364.081 63.457 L 364.081 68.994 Q 364.081 70.854 363.964 72.334 L 364.081 72.334 Q 365.78 69.931 369.12 69.931 A 7.432 7.432 0 0 1 371.212 70.21 A 5.563 5.563 0 0 1 374.035 72.092 Q 375.785 74.253 375.785 78.208 A 14.257 14.257 0 0 1 375.596 80.607 Q 375.208 82.879 374.02 84.353 A 5.757 5.757 0 0 1 369.929 86.504 A 8.247 8.247 0 0 1 369.12 86.543 A 7.376 7.376 0 0 1 367.267 86.317 A 6.418 6.418 0 0 1 366.256 85.964 A 5.386 5.386 0 0 1 364.081 84.184 Z M 405.536 84.243 L 405.536 86.103 A 2.392 2.392 0 0 1 405.252 86.216 Q 404.9 86.332 404.372 86.418 Q 403.654 86.534 403.07 86.542 A 6.232 6.232 0 0 1 402.987 86.543 A 6.351 6.351 0 0 1 401.116 86.291 Q 399.058 85.656 398.52 83.421 A 7.643 7.643 0 0 1 398.329 81.635 L 398.329 72.085 L 396.029 72.085 L 396.029 70.913 L 398.329 69.902 L 399.354 66.474 L 400.761 66.474 L 400.761 70.195 L 405.419 70.195 L 405.419 72.085 L 400.761 72.085 L 400.761 81.533 Q 400.761 82.552 401.101 83.238 A 2.359 2.359 0 0 0 401.449 83.759 A 2.259 2.259 0 0 0 402.838 84.499 A 3.25 3.25 0 0 0 403.339 84.536 A 7.986 7.986 0 0 0 404.509 84.452 A 7.359 7.359 0 0 0 404.584 84.441 A 13.154 13.154 0 0 0 404.935 84.38 Q 405.294 84.313 405.536 84.243 Z M 416.127 84.243 L 416.127 86.103 A 2.392 2.392 0 0 1 415.843 86.216 Q 415.491 86.332 414.962 86.418 Q 414.244 86.534 413.66 86.542 A 6.232 6.232 0 0 1 413.578 86.543 A 6.351 6.351 0 0 1 411.706 86.291 Q 409.649 85.656 409.111 83.421 A 7.643 7.643 0 0 1 408.92 81.635 L 408.92 72.085 L 406.62 72.085 L 406.62 70.913 L 408.92 69.902 L 409.945 66.474 L 411.351 66.474 L 411.351 70.195 L 416.01 70.195 L 416.01 72.085 L 411.351 72.085 L 411.351 81.533 Q 411.351 82.552 411.691 83.238 A 2.359 2.359 0 0 0 412.04 83.759 A 2.259 2.259 0 0 0 413.429 84.499 A 3.25 3.25 0 0 0 413.93 84.536 A 7.986 7.986 0 0 0 415.099 84.452 A 7.359 7.359 0 0 0 415.175 84.441 A 13.154 13.154 0 0 0 415.526 84.38 Q 415.885 84.313 416.127 84.243 Z M 393.667 80.651 A 12.56 12.56 0 0 0 393.891 78.208 A 14.272 14.272 0 0 0 393.885 77.822 Q 393.849 76.485 393.56 75.35 A 7.572 7.572 0 0 0 391.906 72.143 A 6.366 6.366 0 0 0 388.95 70.237 A 8.171 8.171 0 0 0 386.552 69.902 A 9.444 9.444 0 0 0 384.855 70.048 A 6.432 6.432 0 0 0 381.102 72.092 Q 379.14 74.282 379.14 78.208 A 12.165 12.165 0 0 0 379.292 80.178 A 8.995 8.995 0 0 0 380.048 82.631 A 7.992 7.992 0 0 0 380.225 82.978 A 6.583 6.583 0 0 0 382.626 85.532 A 6.771 6.771 0 0 0 384.18 86.223 A 7.809 7.809 0 0 0 386.449 86.543 A 9.442 9.442 0 0 0 388.098 86.405 A 6.483 6.483 0 0 0 391.913 84.338 A 6.783 6.783 0 0 0 392.721 83.228 Q 393.38 82.101 393.667 80.651 Z M 432.969 80.651 A 12.56 12.56 0 0 0 433.192 78.208 A 14.272 14.272 0 0 0 433.187 77.822 Q 433.151 76.485 432.862 75.35 A 7.572 7.572 0 0 0 431.207 72.143 A 6.366 6.366 0 0 0 428.252 70.237 A 8.171 8.171 0 0 0 425.853 69.902 A 9.444 9.444 0 0 0 424.157 70.048 A 6.432 6.432 0 0 0 420.404 72.092 Q 418.441 74.282 418.441 78.208 A 12.165 12.165 0 0 0 418.594 80.178 A 8.995 8.995 0 0 0 419.35 82.631 A 7.992 7.992 0 0 0 419.527 82.978 A 6.583 6.583 0 0 0 421.928 85.532 A 6.771 6.771 0 0 0 423.482 86.223 A 7.809 7.809 0 0 0 425.751 86.543 A 9.442 9.442 0 0 0 427.4 86.405 A 6.483 6.483 0 0 0 431.215 84.338 A 6.783 6.783 0 0 0 432.022 83.228 Q 432.681 82.101 432.969 80.651 Z M 381.659 78.208 A 12.314 12.314 0 0 0 381.776 79.967 Q 381.906 80.86 382.177 81.583 A 5.101 5.101 0 0 0 382.89 82.895 A 3.985 3.985 0 0 0 385.485 84.424 A 6.039 6.039 0 0 0 386.508 84.506 A 5.648 5.648 0 0 0 387.998 84.321 A 3.931 3.931 0 0 0 390.133 82.902 A 5.22 5.22 0 0 0 390.946 81.319 Q 391.185 80.588 391.29 79.695 A 12.809 12.809 0 0 0 391.371 78.208 A 12.133 12.133 0 0 0 391.256 76.479 Q 390.994 74.662 390.133 73.557 A 4 4 0 0 0 387.646 72.073 A 6.133 6.133 0 0 0 386.478 71.967 A 5.787 5.787 0 0 0 385.038 72.136 A 3.873 3.873 0 0 0 382.875 73.535 A 5.028 5.028 0 0 0 382.093 75.045 Q 381.659 76.352 381.659 78.208 Z M 420.961 78.208 A 12.314 12.314 0 0 0 421.078 79.967 Q 421.207 80.86 421.479 81.583 A 5.101 5.101 0 0 0 422.191 82.895 A 3.985 3.985 0 0 0 424.787 84.424 A 6.039 6.039 0 0 0 425.809 84.506 A 5.648 5.648 0 0 0 427.3 84.321 A 3.931 3.931 0 0 0 429.435 82.902 A 5.22 5.22 0 0 0 430.248 81.319 Q 430.487 80.588 430.591 79.695 A 12.809 12.809 0 0 0 430.673 78.208 A 12.133 12.133 0 0 0 430.558 76.479 Q 430.296 74.662 429.435 73.557 A 4 4 0 0 0 426.948 72.073 A 6.133 6.133 0 0 0 425.78 71.967 A 5.787 5.787 0 0 0 424.339 72.136 A 3.873 3.873 0 0 0 422.177 73.535 A 5.028 5.028 0 0 0 421.395 75.045 Q 420.961 76.352 420.961 78.208 Z M 368.768 71.967 Q 366.278 71.967 365.18 73.396 Q 364.214 74.65 364.097 77.415 A 18.735 18.735 0 0 0 364.081 78.208 A 16.078 16.078 0 0 0 364.161 79.869 Q 364.335 81.546 364.895 82.566 A 3.668 3.668 0 0 0 365.209 83.049 A 3.528 3.528 0 0 0 366.998 84.257 Q 367.597 84.444 368.326 84.491 A 7.819 7.819 0 0 0 368.827 84.506 A 4.847 4.847 0 0 0 370.204 84.322 A 3.497 3.497 0 0 0 372.167 82.873 Q 372.952 81.706 373.176 79.811 A 13.933 13.933 0 0 0 373.266 78.178 A 14.366 14.366 0 0 0 373.179 76.541 Q 372.957 74.611 372.167 73.505 A 3.546 3.546 0 0 0 369.909 72.077 A 5.624 5.624 0 0 0 368.768 71.967 Z"
         id="bottom_labelLayer"
         stroke="#777777"
         fill="#777777"
         style="stroke:#777777;fill:#777777;stroke-width:0.7;stroke-dasharray:none"
         vector-effect="non-scaling-stroke"
         inkscape:label="Bottom-letra" />
    </g>
  </g>
</svg>
